PathFileType	4	(X/Y/Z)	D:\TRACE\spotREDO_2-26-24\spot_baseline_1-v60.trc
DataRate	CameraRate	NumFrames	NumMarkers	Units	OrigDataRate	OrigDataStartFrame	OrigNumFrames
100.00	100.00	      38	9	mm	100.00	6126	      7000
Frame#	Time	front left toe			Front right toe			aft left toe			aft right toe			Arm			FL body			FR body			AL Body			AR Body			
		X1	Y1	Z1	X2	Y2	Z2	X3	Y3	Z3	X4	Y4	Z4	X5	Y5	Z5	X6	Y6	Z6	X7	Y7	Z7	X8	Y8	Z8	X9	Y9	Z9	

6126	61.250	-262.34351	19.17506	-131.13918	253.08144	25.43780	-244.14706	-252.66068	23.79416	363.55438	315.50784	29.27227	291.70892	-64.34060	807.50555	-352.42313	-139.25279	546.64508	-317.49200	15.31580	554.22632	-339.68628	-26.59656	559.95184	558.05432	122.24734	563.06696	539.94720	
6127	61.260	-262.38211	19.20340	-131.16251	252.98595	25.44021	-244.25772	-252.69725	23.82863	363.53787	315.41809	29.33459	291.63669	-65.66256	807.58270	-353.84354	-140.69563	546.80646	-318.92572	13.98759	554.20526	-341.01044	-28.11690	559.98529	556.17261	121.36916	562.73688	539.29474	
6128	61.270	-262.50925	19.20718	-131.28642	252.99760	26.12079	-243.90880	-252.67184	23.69240	363.66043	315.31232	29.24306	291.50742	-66.71331	807.59198	-355.15607	-142.38152	546.93219	-320.34109	12.30071	554.06104	-342.40030	-29.63276	559.89008	554.79425	119.48499	562.34753	537.34088	
6129	61.280	-262.57272	19.19223	-131.28909	253.67490	26.75627	-243.61171	-252.66354	23.57579	363.65082	315.31177	29.14264	291.38684	-68.20883	807.47797	-356.77005	-144.15047	546.85901	-321.84424	10.67480	553.94348	-344.00327	-30.40549	559.56818	554.15076	118.05437	562.04590	535.78949	
6130	61.290	-262.70242	19.09592	-131.49808	253.88556	27.06635	-243.30592	-252.64294	23.56963	363.81778	315.30264	29.10037	291.46451	-69.67869	807.40283	-358.38693	-145.67751	546.91321	-323.51337	8.75330	553.84900	-345.60529	-32.09369	559.34760	552.42114	116.17017	561.57288	534.09143	
6131	61.300	-262.50931	19.02289	-131.84947	254.08673	26.90543	-243.54042	-252.65648	23.44184	363.86795	315.43213	29.18525	290.95172	-71.15420	807.41638	-360.08722	-147.70378	546.63898	-325.12189	6.77869	553.67877	-347.43994	-33.28347	558.68372	550.66687	114.41683	561.29608	532.43243	
6132	61.310	-263.08240	18.39585	-132.12943	252.39743	25.92145	-244.53951	-253.39154	22.67729	363.61703	317.73392	35.44106	291.07529	-73.65942	807.34998	-361.93063	-149.91505	546.97345	-327.23499	4.65933	553.70038	-349.23395	-34.40541	558.21838	548.75311	112.82113	560.44434	530.52374	
6133	61.320	-263.85300	18.79149	-131.67644	251.50684	25.90889	-245.24344	-254.19131	22.20596	364.01587	314.21942	42.97516	296.65485	-75.37364	807.17358	-363.41724	-152.46616	547.91272	-328.70532	2.11146	553.76617	-351.09912	-35.59974	557.73724	547.09259	111.69156	558.80432	528.34570	
6134	61.330	-263.83469	18.84884	-131.79791	250.64491	26.58485	-245.90935	-253.92636	22.30167	364.08133	312.17007	53.70806	303.15042	-76.24416	807.54315	-365.21619	-155.33826	548.24939	-330.30710	-0.82642	553.51697	-353.31104	-36.50183	557.43091	545.18640	110.94655	558.06891	526.28912	
6135	61.340	-263.76965	18.21416	-131.89214	251.14482	27.00366	-246.27577	-253.39722	22.53986	363.45474	311.88544	65.96920	305.07910	-77.55692	808.08722	-366.70413	-157.31734	548.02740	-331.93906	-2.77291	552.84302	-354.97379	-38.19219	557.72540	543.48096	109.37840	557.92755	524.30103	
6136	61.350	-264.24112	17.37449	-131.64226	250.56583	26.80891	-246.01070	-253.29926	22.66581	363.36765	312.01038	79.70794	300.64581	-79.45856	807.83990	-368.48828	-159.00073	547.33130	-333.45880	-4.54507	551.87207	-356.47791	-40.15525	558.30756	542.01965	107.04037	558.40240	522.87854	
6137	61.360	-264.52493	16.81461	-131.83499	250.62569	26.80788	-245.97925	-253.97234	22.86476	363.53265	312.69971	92.89442	292.85214	-81.11596	806.26758	-370.29367	-160.50392	546.89105	-335.06781	-5.67842	551.36298	-357.75003	-41.88661	558.61249	540.67651	105.10889	558.68030	521.61328	
6138	61.370	-264.53259	17.04608	-131.93781	250.75998	26.81243	-245.88272	-254.47687	22.54014	363.48535	308.92477	104.39065	285.91980	-82.58546	804.83325	-372.16971	-162.19398	546.97858	-337.12009	-7.11138	551.08453	-358.98825	-43.68317	558.52380	539.28528	103.26126	558.59430	520.37646	
6139	61.380	-264.54654	17.23641	-132.13515	250.80586	26.80043	-245.86172	-254.64876	22.31464	363.47177	304.91635	113.24673	282.89618	-83.63629	804.82562	-373.83914	-163.13828	546.51752	-337.91949	-8.46061	550.86865	-360.51688	-44.97644	558.09247	537.89679	101.73254	558.33588	519.01904	
6140	61.390	-264.57156	17.23328	-132.22897	250.56427	26.97034	-246.04733	-254.82457	22.00968	363.38925	299.40573	121.20245	283.35117	-84.65440	805.29333	-375.00284	-164.48019	546.52496	-339.09055	-9.71202	550.85541	-361.77667	-46.66895	558.05707	536.52246	100.57912	558.03925	517.70789	
6141	61.400	-264.77216	17.11898	-132.15103	251.17458	27.69001	-245.69928	-254.66759	21.98899	363.31131	297.31677	129.24039	284.68155	-85.18644	805.54138	-376.00302	-165.49881	546.34540	-340.07755	-11.06313	550.83423	-363.05301	-47.71447	557.93640	535.35754	99.24156	557.78357	516.45502	
6142	61.410	-264.91306	17.04486	-132.16466	251.11476	27.75480	-245.68324	-254.60184	22.07565	363.22443	295.24811	136.18835	284.43628	-86.47762	805.65161	-377.10406	-167.01567	546.46820	-341.59888	-12.29521	550.56769	-364.15262	-48.98667	557.78174	534.18103	97.94536	557.59930	515.18512	
6143	61.420	-264.88989	16.94323	-132.28571	251.20396	27.78271	-245.64230	-254.76691	22.09673	363.20010	295.40048	143.60246	282.42398	-87.28627	805.49463	-378.01950	-167.95624	546.34216	-342.79202	-13.22598	550.44611	-365.24631	-50.74692	557.82581	533.07550	96.42250	557.69055	514.38550	
6144	61.430	-264.85818	16.69189	-132.40523	251.07573	27.77810	-245.66798	-254.98140	21.98717	363.16193	293.73303	148.29141	278.69742	-88.41669	805.11890	-379.15012	-168.48372	546.01178	-343.68750	-13.97645	550.50134	-366.12045	-52.52150	557.86871	532.25793	94.83208	557.76764	513.48895	
6145	61.440	-264.93307	16.49754	-132.35989	250.47589	27.23576	-245.97644	-255.06583	21.85659	363.14673	291.78860	150.08112	275.51981	-89.96644	804.73859	-380.36713	-169.48732	545.91486	-344.65955	-14.84478	550.34778	-366.85352	-53.55484	557.85742	531.33368	93.56662	557.93420	512.70581	
6146	61.450	-264.93857	16.36962	-132.43987	250.37335	27.21093	-246.03523	-255.22505	21.67739	363.21112	288.66190	149.22662	273.44974	-90.88982	804.50055	-380.91815	-170.18874	545.87372	-345.49200	-15.60616	550.42603	-367.82944	-54.67382	557.90997	530.43744	92.44126	557.92889	511.85828	
6147	61.460	-265.00757	16.50396	-132.47914	250.30156	27.18140	-246.12865	-255.23103	21.62265	363.24460	284.99081	147.36063	271.99335	-91.44474	804.75598	-381.73438	-170.92108	545.98120	-346.31650	-16.40712	550.51855	-368.54251	-55.28545	557.68829	529.61707	91.48943	557.77045	511.22787	
6148	61.470	-265.07291	16.75797	-132.60481	250.18153	27.21756	-246.24709	-255.12680	21.54284	363.14667	282.12057	145.47444	271.05661	-91.85092	805.21545	-382.49573	-171.76471	546.26593	-346.84692	-17.39278	550.84290	-369.33649	-56.26863	557.70172	528.91748	90.95435	557.61890	510.37878	
6149	61.480	-265.08099	16.76333	-132.58905	250.56868	27.56166	-246.44615	-255.10625	21.53190	363.15512	279.55692	144.76474	269.77078	-92.65018	805.50891	-383.12936	-172.67479	546.64362	-347.56424	-18.36491	551.13269	-370.05432	-57.00240	557.56488	528.24426	90.50693	557.41895	509.70108	
6150	61.490	-265.19403	16.75478	-132.62128	250.41138	27.82393	-246.35133	-255.12981	21.53302	363.14914	278.28967	145.23425	268.37830	-93.42158	805.72650	-383.47940	-173.29985	546.78839	-348.19855	-18.89917	551.24463	-370.58444	-57.60447	557.55322	527.67523	89.80474	557.42340	508.99707	
6151	61.500	-265.19455	16.67130	-132.67720	250.46210	27.67085	-246.49689	-255.08218	21.48651	363.13068	276.11954	145.66859	266.58762	-94.05544	805.79602	-384.03033	-174.74835	547.25098	-349.55838	-19.50161	551.17767	-371.08630	-58.40459	557.61627	526.98163	88.92984	557.54388	508.42099	
6152	61.510	-265.25995	16.59067	-132.72339	250.53993	27.59784	-246.55064	-255.11563	21.47993	363.16278	274.59656	146.28793	264.45013	-94.86553	805.84058	-384.51041	-174.70560	546.70813	-349.33432	-20.22089	551.29010	-371.75415	-58.72795	557.65356	526.67883	88.38261	557.68738	508.03122	
6153	61.520	-265.27423	16.54728	-132.73801	250.48885	27.61830	-246.57422	-255.10454	21.52445	363.12991	272.60440	146.21082	262.48520	-95.44509	805.59515	-385.02066	-175.10693	546.45007	-349.74020	-20.86361	551.19934	-372.33783	-59.29472	557.82776	526.01019	87.87594	557.98053	507.43015	
6154	61.530	-265.24231	16.41544	-132.79024	250.48584	27.69868	-246.61255	-255.10106	21.50643	363.12347	269.68408	144.92184	260.53238	-96.13109	805.51190	-385.68790	-175.79201	546.43018	-350.08084	-21.23405	551.14948	-372.57898	-59.66390	558.10706	525.51605	87.36365	558.26862	506.91504	
6155	61.540	-265.29324	16.29728	-132.82202	250.42062	27.66597	-246.65111	-255.14008	21.52107	363.13113	266.90265	142.12221	258.08936	-96.81956	805.33984	-386.32074	-176.23029	546.41986	-350.81894	-21.41807	551.04596	-372.78403	-60.37420	558.51776	524.87238	86.89302	558.60577	506.62100	
6156	61.550	-265.32236	16.22090	-132.82277	250.44957	27.68381	-246.62485	-255.15181	21.51716	363.12949	264.31503	136.34985	255.76540	-97.00276	805.22369	-386.61609	-176.67331	546.24054	-351.15268	-21.84344	550.92175	-373.15277	-60.50874	558.74017	525.03369	86.38383	559.01410	506.43909	
6157	61.560	-265.32236	16.16940	-132.88814	250.48772	27.70332	-246.61479	-255.12654	21.53957	363.11755	262.82959	128.82205	253.97522	-97.30699	805.16089	-386.88263	-176.73668	546.17810	-351.14969	-22.27199	550.90466	-373.49887	-60.96653	558.92444	524.80743	86.14699	559.20294	506.24011	
6158	61.570	-265.36920	16.21486	-132.87816	250.42709	27.63490	-246.73141	-255.14406	21.46500	363.14597	260.60532	118.64239	251.88269	-97.69899	805.21594	-387.17670	-177.17990	546.45892	-351.43329	-22.53385	551.06262	-373.72485	-61.36568	558.96448	524.61017	85.82708	559.18451	506.01996	
6159	61.580	-265.35300	16.26625	-132.91507	250.54240	27.74967	-246.71127	-255.17114	21.45902	363.15497	259.48840	107.38651	250.52808	-98.04981	805.48859	-387.27042	-177.04836	546.43475	-351.36465	-22.74445	551.30823	-373.88232	-61.57456	558.86261	524.44965	85.62659	559.10687	505.88370	
6160	61.590	-265.40857	16.47370	-132.94661	250.52046	27.64930	-246.75096	-255.16757	21.37489	363.15375	257.31644	95.37251	249.46289	-98.08357	805.86224	-387.21286	-177.20251	546.67920	-351.40814	-22.90439	551.51367	-373.89700	-61.71891	558.69397	524.30756	85.41347	558.82098	505.72775	
6161	61.600	-265.36084	16.50015	-132.91086	250.41875	27.62231	-246.85957	-255.16730	21.35359	363.15494	255.91658	84.03516	249.03319	-98.23264	806.36359	-387.09256	-177.51585	547.06061	-351.50790	-23.24072	551.79413	-373.98206	-61.71717	558.37897	524.26404	85.11535	558.47107	505.62006	
6162	61.610	-265.39490	16.54661	-132.90140	250.43054	27.68995	-246.85626	-255.19174	21.32681	363.17892	254.68582	73.37560	248.95757	-98.32526	806.73102	-386.91809	-177.81441	547.45245	-351.65103	-23.45308	552.13879	-374.00787	-61.68658	558.17596	524.24524	85.12042	558.21014	505.57901	
6163	61.620	-265.42502	16.60373	-132.88486	250.35324	27.64156	-246.90199	-255.18512	21.32668	363.17664	252.99091	62.46947	248.59264	-98.37550	806.97345	-386.76801	-177.94780	547.57794	-351.59808	-23.59205	552.26337	-374.01324	-61.67919	558.07477	524.25488	85.13746	558.08948	505.53329	
